# AST/ASF file generated using VICON BodyLanguage
# -----------------------------------------------
:version 1.10
:name VICON
:units
  mass 1.0
  length 0.45
  angle deg
:documentation
   .ast/.asf automatically generated from VICON data using
   VICON BodyBuilder and BodyLanguage model FoxedUp or BRILLIANT.MOD
:root
   order TX TY TZ RX RY RZ
   axis XYZ
   position 0 0 0  
   orientation 0 0 0 
:bonedata
  begin
     id 1 
     name lhipjoint
     direction 0.822369 -0.411937 0.392449 
     length 3.8167 
     axis 0 0 0  XYZ
  end
  begin
     id 2 
     name lfemur
     direction 0.34202 -0.939693 0  
     length 6.16791  
     axis 0 0 20  XYZ
    dof rx ry rz
    limits (-160.0 20.0)
           (-70.0 70.0)
           (-60.0 70.0)
  end
  begin
     id 3 
     name ltibia
     direction 0.34202 -0.939693 0   
     length 7.07101   
     axis 0 0 20   XYZ
    dof rx
    limits (-10.0 170.0)
  end
  begin
     id 4 
     name lfoot
     direction 0.028254 -0.0776273 0.996582   
     length 1.66799   
     axis -90 7.62852e-016 20   XYZ
    dof rx rz
    limits (-45.0 90.0)
           (-70.0 20.0)
  end
  begin
     id 5 
     name ltoes
     direction 1.53483e-011 -4.21688e-011 1   
     length 0.851674   
     axis -90 7.62852e-016 20   XYZ
    dof rx
    limits (-90.0 20.0)
  end
  begin
     id 6 
     name rhipjoint
     direction -0.822466 -0.411836 0.392353   
     length 3.81764  
     axis 0 0 0  XYZ 
  end
  begin
     id 7 
     name rfemur
     direction -0.34202 -0.939693 0   
     length 6.28636   
     axis 0 0 -20   XYZ
    dof rx ry rz
    limits (-160.0 20.0)
           (-70.0 70.0)
           (-70.0 60.0)
  end
  begin
     id 8 
     name rtibia
     direction -0.34202 -0.939693 0   
     length 6.85621   
     axis 0 0 -20   XYZ
    dof rx
    limits (-10.0 170.0)
 end
 begin
     id 9 
     name rfoot
     direction -0.0553036 -0.151945 0.98684   
     length 1.57293  
     axis -90 -7.62852e-016 -20   XYZ
    dof rx rz
    limits (-45.0 90.0)
           (-20.0 70.0)
  end
  begin
     id 10 
     name rtoes
     direction -1.53592e-011 -4.21964e-011 1   
     length 0.802812   
     axis -90 -7.62852e-016 -20   XYZ
    dof rx
    limits (-90.0 20.0)
  end
  begin
     id 11 
     name lowerback
     direction 0.00654913 0.996475 -0.0836396   
     length 1.97212   
     axis 0 0 0   XYZ
    dof rx ry rz
    limits (-20.0 45.0)
           (-30.0 30.0)
           (-30.0 30.0)
  end
  begin
     id 12 
     name upperback
     direction 0.0111875 0.994527 0.103877   
     length 1.89704   
     axis 0 0 0   XYZ
    dof rx ry rz
    limits (-20.0 45.0)
           (-30.0 30.0)
           (-30.0 30.0)
  end
  begin
     id 13 
     name thorax
     direction 0.00473652 0.989004 0.147814   
     length 1.94516   
     axis 0 0 0   XYZ
    dof rx ry rz
    limits (-20.0 45.0)
           (-30.0 30.0)
           (-30.0 30.0)
  end
  begin
     id 14 
     name lowerneck
     direction -0.00925808 0.999011 0.0434791   
     length 1.81771   
     axis 0 0 0   XYZ
    dof rx ry rz
    limits (-20.0 45.0)
           (-30.0 30.0)
           (-30.0 30.0)
  end
  begin
     id 15 
     name upperneck
     direction 0.00451595 0.964412 -0.264365   
     length 1.80434   
     axis 0 0 0   XYZ
    dof rx ry rz
    limits (-20.0 45.0)
           (-30.0 30.0)
           (-30.0 30.0)
  end
  begin
     id 16
     name head
     direction -0.00110849 0.995756 -0.0920241  
     length 1.84006  
     axis 0 0 0   XYZ
    dof rx ry rz
    limits (-20.0 45.0)
           (-30.0 30.0)
           (-30.0 30.0)
  end
  begin
     id 17 
     name lclavicle
     direction 0.921253 0.385213 0.0538957  
     length 3.67415  
     axis 0 0 0   XYZ
    dof ry rz
    limits (-20.0 10.0)
           (0.0 20.0)
  end
  begin
     id 18 
     name lhumerus
     direction 1 -4.48961e-011 6.73441e-028   
     length 4.32712   
     axis 180 -30 -90   XYZ
    dof rx ry rz
    limits (-60.0 90.0)
           (-90.0 90.0)
           (-90.0 90.0)
  end
  begin
     id 19
     name lradius
     direction 1 -4.48985e-011 -9.53507e-028   
     length 3.28587   
     axis 180 -30 -90   XYZ
    dof rx
    limits (-10.0 170.0)
  end
  begin
     id 20
     name lwrist
     direction 1 -4.48951e-011 -4.67472e-027   
     length 1.64293   
     axis 1.65735e-015 90 90   XYZ
    dof ry
    limits (-180.0 0.0)
 end
  begin
     id 21 
     name lhand
     direction 1 -4.48946e-011 -9.34945e-027   
     length 0.433158   
     axis 5.96574e-015 90 90   XYZ
    dof rx rz
    limits (-90.0 90.0)
           (-45.0 45.0)
  end
  begin
     id 22 
     name lfingers
     direction 1 -4.48882e-011 -1.86989e-026   
     length 0.349224   
     axis 1.19315e-014 90 90   XYZ
    dof rx
    limits (0.0 90.0)
  end
  begin
     id 23
     name lthumb
     direction 0.707107 -6.3493e-011 0.707107   
     length 0.501417   
     axis -90 45 2.85299e-015   XYZ
    dof rx rz
    limits (-45.0 45.0)
           (-45.0 45.0)
  end
  begin
     id 24 
     name rclavicle
     direction -0.884378 0.46502 -0.0403866   
     length 3.50218  
     axis 0 0 0   XYZ 
    dof ry rz
    limits (-10.0 20.0)
           (-20.0 0.0)
  end
  begin
     id 25 
     name rhumerus
     direction -1 -4.48964e-011 1.58188e-027  
     length 4.29104   
     axis 180 30 90   XYZ
    dof rx ry rz
    limits (-90.0 60.0)
           (-90.0 90.0)
           (-90.0 90.0)
  end
  begin
     id 26 
     name rradius
     direction -1 -4.48978e-011 -1.9722e-027   
     length 3.2272   
     axis 180 30 90   XYZ
    dof rx
    limits (-10.0 170.0)
  end
  begin
     id 27 
     name rwrist
     direction -1 -4.48969e-011 -4.67472e-027   
     length 1.6136   
     axis 1.65735e-015 -90 -90   XYZ
    dof ry
    limits (-180.0 0.0)
  end
  begin
     id 28
     name rhand
     direction -1 -4.48846e-011 -9.34945e-027   
     length 0.543623   
     axis 5.96574e-015 -90 -90   XYZ
    dof rx rz
    limits (-90.0 90.0)
           (-45.0 45.0)
  end
  begin
     id 29
     name rfingers
     direction -1 -4.49074e-011 -1.86989e-026   
     length 0.438283   
     axis 1.19315e-014 -90 -90   XYZ
    dof rx
    limits (0.0 90.0)
  end
  begin
     id 30
     name rthumb
     direction -0.707107 -6.34834e-011 0.707107   
     length 0.629289   
     axis -90 -45 -2.85299e-015   XYZ
    dof rx rz
    limits (-45.0 45.0)
           (-45.0 45.0)
  end
:hierarchy
  begin
    root lhipjoint rhipjoint lowerback
    lhipjoint lfemur
    lfemur ltibia
    ltibia lfoot
    lfoot ltoes
    rhipjoint rfemur
    rfemur rtibia
    rtibia rfoot
    rfoot rtoes
    lowerback upperback
    upperback thorax
    thorax lowerneck lclavicle rclavicle
    lowerneck upperneck
    upperneck head
    lclavicle lhumerus
    lhumerus lradius
    lradius lwrist
    lwrist lhand lthumb
    lhand lfingers
    rclavicle rhumerus
    rhumerus rradius
    rradius rwrist
    rwrist rhand rthumb
    rhand rfingers
  end

#!OML:ASF H:\GeneralSubjects\Female5\Project 1\Capture day 1\Session 1\Female5.ASF
:FULLY-SPECIFIED
:DEGREES
97
root 3.72517 16.3022 2.72698 -173.741 -25.8399 -177.549
lowerback 3.00411 1.18197 0.0677115
upperback -12.8528 0.739902 3.18684
thorax -16.0128 0.100725 3.5795
lowerneck -14.8755 3.00292 1.06571
upperneck 34.1205 4.77896 -8.27379
head 14.5001 0.106954 -3.0401
rclavicle -9.50191e-014 -7.15625e-015
rhumerus -53.3224 2.7024 -48.7728
rradius 138.141
rwrist -1.29513
rhand -52.4245 -13.0578
rfingers 7.12502
rthumb -24.9144 -41.4539
lclavicle -9.50191e-014 -7.15625e-015
lhumerus -60.7608 7.3673 55.1917
lradius 143.755
lwrist -18.1851
lhand -50.8893 46.386
lfingers 7.12502
lthumb -23.4424 74.978
rfemur 7.86216 34.1218 30.711
rtibia -6.78225
rfoot -36.6022 -35.1678
rtoes 8.4114
lfemur 12.0589 -42.3217 -28.3343
ltibia -3.08993
lfoot -58.9667 0.0440998
ltoes -10.1855
98
root 3.71277 16.3049 2.7141 -173.842 -25.7965 -177.574
lowerback 3.09353 1.18366 0.0575468
upperback -12.9546 0.731154 3.26071
thorax -16.2042 0.0995071 3.68041
lowerneck -14.6156 3.2395 1.14003
upperneck 33.8847 5.21882 -8.65727
head 14.3828 0.258696 -3.12996
rclavicle -2.18663e-014 -1.03368e-014
rhumerus -51.8467 1.31076 -45.5165
rradius 139.005
rwrist -0.918494
rhand -53.7162 -15.2884
rfingers 7.12502
rthumb -26.1517 -43.5073
lclavicle -2.18663e-014 -1.03368e-014
lhumerus -60.0689 8.64622 51.0023
lradius 145.733
lwrist -17.9516
lhand -51.6003 46.4022
lfingers 7.12502
lthumb -24.1243 74.9054
rfemur 7.72864 33.4331 30.5604
rtibia -6.47933
rfoot -36.254 -34.4793
rtoes 8.14142
lfemur 12.236 -42.1007 -28.4777
ltibia -3.1035
lfoot -58.8812 0.175478
ltoes -10.706
99
root 3.69982 16.3072 2.69865 -173.916 -25.7421 -177.602
lowerback 3.08644 1.22118 0.100528
upperback -13.0107 0.774935 3.24977
thorax -16.2727 0.110166 3.64075
lowerneck -14.491 3.45743 1.33653
upperneck 33.6742 5.64205 -9.15674
head 14.3197 0.403286 -3.29439
rclavicle -9.34288e-015 5.56597e-015
rhumerus -50.4935 -0.285235 -42.238
rradius 139.711
rwrist -1.28743
rhand -54.8078 -17.078
rfingers 7.12502
rthumb -27.1964 -45.1378
lclavicle -9.34288e-015 5.56597e-015
lhumerus -59.1184 9.87521 46.5629
lradius 147.258
lwrist -17.6746
lhand -50.8291 48.1886
lfingers 7.12502
lthumb -23.3846 76.788
rfemur 7.73668 32.9856 30.4858
rtibia -6.36297
rfoot -35.4708 -34.243
rtoes 7.6634
lfemur 12.4443 -41.9232 -28.6478
ltibia -3.11854
lfoot -58.7693 0.47537
ltoes -11.4628
100
root 3.68588 16.3106 2.6841 -173.966 -25.6661 -177.639
lowerback 3.06177 1.28037 0.180311
upperback -13.065 0.848115 3.18904
thorax -16.326 0.125631 3.5181
lowerneck -14.335 3.63597 1.49234
upperneck 33.5019 5.98266 -9.56914
head 14.2586 0.517734 -3.43097
rclavicle -8.54774e-015 9.54166e-015
rhumerus -49.221 -1.9821 -38.9878
rradius 140.239
rwrist -2.08087
rhand -55.521 -17.8339
rfingers 7.12502
rthumb -27.8784 -45.785
lclavicle -8.54774e-015 9.54166e-015
lhumerus -58.0182 11.0512 42.0132
lradius 148.34
lwrist -17.3967
lhand -50.8482 50.1874
lfingers 7.12502
lthumb -23.403 78.7844
rfemur 7.71176 32.604 30.3804
rtibia -6.24231
rfoot -34.9414 -33.8755
rtoes 8.16065
lfemur 12.6518 -41.8342 -28.8242
ltibia -3.16862
lfoot -58.7375 0.552542
ltoes -11.69
101
root 3.66968 16.3163 2.66957 -173.985 -25.5858 -177.694
lowerback 3.06836 1.36944 0.290106
upperback -13.1391 0.958821 3.06098
thorax -16.4239 0.149159 3.29707
lowerneck -14.2662 3.77753 1.75333
upperneck 33.3859 6.24529 -9.97695
head 14.2423 0.611567 -3.60014
rclavicle -2.24627e-014 1.03368e-014
rhumerus -48.1862 -3.788 -35.6675
rradius 140.641
rwrist -2.67336
rhand -55.8769 -17.9486
rfingers 7.12502
rthumb -28.2186 -45.8441
lclavicle -2.24627e-014 1.03368e-014
lhumerus -56.7465 12.143 37.4559
lradius 149.186
lwrist -17.0121
lhand -51.3246 51.6411
lfingers 7.12502
lthumb -23.8599 80.1791
rfemur 7.53228 31.8471 30.1265
rtibia -6.04617
rfoot -34.218 -33.2706
rtoes 8.04548
lfemur 12.8627 -41.8577 -29.052
ltibia -3.22408
lfoot -58.8863 0.0081951
ltoes -10.5059
102
root 3.65383 16.3243 2.65633 -174 -25.521 -177.746
lowerback 3.09195 1.48357 0.404105
upperback -13.1942 1.10705 2.90001
thorax -16.5085 0.188537 3.02819
lowerneck -14.3696 3.92875 2.13552
upperneck 33.3472 6.53235 -10.4807
head 14.3151 0.7124 -3.83287
rclavicle -3.02153e-014 -1.03368e-014
rhumerus -47.4059 -5.66433 -32.2082
rradius 140.975
rwrist -3.0959
rhand -56.2987 -18.9323
rfingers 7.12502
rthumb -28.6216 -46.7605
lclavicle -3.02153e-014 -1.03368e-014
lhumerus -55.3271 13.3124 32.7012
lradius 149.969
lwrist -16.4459
lhand -52.1355 53.3613
lfingers 7.12502
lthumb -24.6374 81.7955
rfemur 7.34441 30.929 29.844
rtibia -5.91709
rfoot -32.9802 -32.9395
rtoes 6.06334
lfemur 12.9301 -41.5934 -29.1645
ltibia -3.19177
lfoot -58.7577 -0.701079
ltoes -9.1464
103
root 3.63859 16.3328 2.64378 -174.044 -25.4862 -177.775
lowerback 3.15306 1.56221 0.474429
upperback -13.2677 1.20746 2.8343
thorax -16.644 0.217645 2.90213
lowerneck -14.3797 4.16601 2.37903
upperneck 33.3319 6.94933 -10.9079
head 14.3851 0.855934 -3.99102
rclavicle -1.61016e-014 2.38542e-014
rhumerus -46.5764 -7.42426 -28.5405
rradius 141.243
rwrist -3.86891
rhand -56.7149 -19.8985
rfingers 7.12502
rthumb -29.0192 -47.6589
lclavicle -1.61016e-014 2.38542e-014
lhumerus -54.0476 14.5261 27.8147
lradius 150.567
lwrist -15.7673
lhand -53.2164 55.5052
lfingers 7.12502
lthumb -25.673 83.794
rfemur 7.20387 30.202 29.6579
rtibia -5.74185
rfoot -31.8704 -32.7199
rtoes 4.79479
lfemur 12.8663 -41.0875 -29.129
ltibia -3.11056
lfoot -58.2855 -1.04574
ltoes -8.68446
104
root 3.62134 16.3401 2.62846 -174.115 -25.4639 -177.772
lowerback 3.26457 1.64519 0.595134
upperback -13.3505 1.31874 2.74353
thorax -16.8225 0.243018 2.71777
lowerneck -14.4017 4.40723 2.49833
upperneck 33.3324 7.31434 -10.9933
head 14.4373 1.01458 -3.98906
rclavicle 9.24349e-014 2.38542e-014
rhumerus -45.8556 -9.28054 -24.6628
rradius 141.404
rwrist -4.89547
rhand -56.9881 -20.2899
rfingers 7.12502
rthumb -29.2801 -48.0052
lclavicle 9.24349e-014 2.38542e-014
lhumerus -52.6594 15.5108 23.0893
lradius 150.932
lwrist -14.9743
lhand -53.5605 57.1902
lfingers 7.12502
lthumb -26.0025 85.4311
rfemur 7.09142 29.4672 29.5042
rtibia -5.58093
rfoot -30.8336 -32.2254
rtoes 5.35232
lfemur 12.8495 -40.6958 -29.0921
ltibia -3.07189
lfoot -57.8977 -1.20447
ltoes -8.5828
105
root 3.60349 16.3477 2.61136 -174.125 -25.37 -177.864
lowerback 3.31445 1.76 0.644954
upperback -13.3784 1.46446 2.55109
thorax -16.8876 0.288228 2.44588
lowerneck -14.4751 4.63825 2.64854
upperneck 33.3285 7.60686 -10.8689
head 14.4802 1.184 -3.91171
rclavicle 8.74653e-015 4.92986e-014
rhumerus -45.3458 -11.2054 -20.7239
rradius 141.414
rwrist -5.7684
rhand -57.3829 -20.7038
rfingers 7.12502
rthumb -29.657 -48.3526
lclavicle 8.74653e-015 4.92986e-014
lhumerus -50.9804 16.4315 18.6785
lradius 151.116
lwrist -14.1707
lhand -53.601 57.8655
lfingers 7.12502
lthumb -26.0413 86.1007
rfemur 6.99684 28.7806 29.2313
rtibia -5.48688
rfoot -29.8721 -31.6911
rtoes 5.41114
lfemur 12.8999 -40.3654 -29.2181
ltibia -3.01893
lfoot -57.6848 -1.45312
ltoes -8.59302
106
root 3.58722 16.3572 2.59374 -174.071 -25.2297 -178.008
lowerback 3.2395 1.88958 0.624636
upperback -13.3762 1.61848 2.33532
thorax -16.8311 0.34473 2.18326
lowerneck -14.5197 4.8491 2.9419
upperneck 33.3351 7.86473 -10.8817
head 14.5334 1.33628 -3.92516
rclavicle -5.02925e-014 4.21423e-014
rhumerus -44.9868 -13.0094 -16.9146
rradius 141.352
rwrist -6.1897
rhand -57.891 -22.5966
rfingers 7.12502
rthumb -30.1419 -50.1581
lclavicle -5.02925e-014 4.21423e-014
lhumerus -49.303 17.3312 14.8835
lradius 150.949
lwrist -14.38
lhand -53.9197 61.9396
lfingers 7.12502
lthumb -26.3465 -90.1295
rfemur 6.89337 28.5167 28.9914
rtibia -5.26816
rfoot -29.7027 -31.1752
rtoes 5.79186
lfemur 12.9525 -40.0779 -29.4019
ltibia -2.97704
lfoot -57.5707 -1.39539
ltoes -8.95317
107
root 3.57268 16.3678 2.57661 -174.079 -25.1769 -177.885
lowerback 3.16126 2.02838 0.886455
upperback -13.4271 1.80933 2.14944
thorax -16.8299 0.378594 1.79519
lowerneck -14.4199 4.99184 3.40038
upperneck 33.2586 8.03714 -11.1472
head 14.5315 1.44326 -4.08642
rclavicle 1.31198e-014 2.62396e-014
rhumerus -44.8586 -14.6973 -13.086
rradius 141.203
rwrist -6.27962
rhand -58.3765 -25.2791
rfingers 7.12502
rthumb -30.605 -52.7551
lclavicle 1.31198e-014 2.62396e-014
lhumerus -47.6218 18.2008 11.1934
lradius 150.708
lwrist -14.0562
lhand -54.0213 64.0114
lfingers 7.12502
lthumb -26.4437 -92.1867
rfemur 6.83394 28.7645 29.1575
rtibia -5.00827
rfoot -30.0631 -30.9775
rtoes 6.77708
lfemur 12.9311 -39.9417 -29.2383
ltibia -2.99833
lfoot -57.5021 -1.07887
ltoes -9.04156
108
root 3.55883 16.3776 2.56141 -174.144 -25.1975 -177.625
lowerback 3.18007 2.14707 1.3034
upperback -13.5303 1.98938 2.0044
thorax -16.9537 0.38613 1.37177
lowerneck -14.0329 5.13192 3.80742
upperneck 33.0015 8.22517 -11.5013
head 14.3875 1.55114 -4.26377
rclavicle 5.36719e-015 2.22639e-014
rhumerus -44.7176 -16.2118 -9.14221
rradius 140.894
rwrist -6.61035
rhand -59.077 -26.6011
rfingers 7.12502
rthumb -31.2727 -53.9502
lclavicle 5.36719e-015 2.22639e-014
lhumerus -46.0699 18.6928 10.138
lradius 150.333
lwrist -15.7626
lhand -54.4926 64.381
lfingers 7.12502
lthumb -26.8948 -92.4877
rfemur 6.86368 29.0576 29.4883
rtibia -4.90389
rfoot -30.2585 -31.1854
rtoes 6.66533
lfemur 12.8039 -39.6588 -28.8253
ltibia -3.01061
lfoot -57.1696 -0.657185
ltoes -9.5548
109
root 3.54537 16.386 2.54696 -174.128 -25.2116 -177.552
lowerback 3.16355 2.24474 1.50401
upperback -13.5781 2.12386 1.85025
thorax -16.9886 0.404993 1.06351
lowerneck -13.7103 5.33843 4.25712
upperneck 32.6867 8.52867 -11.9201
head 14.2554 1.70962 -4.4524
rclavicle 2.00773e-014 0
rhumerus -44.4618 -17.6959 -5.37898
rradius 140.498
rwrist -7.08485
rhand -59.9074 -27.8222
rfingers 7.12502
rthumb -32.0637 -55.0154
lclavicle 2.00773e-014 0
lhumerus -45.2215 19.7498 5.14263
lradius 150.249
lwrist -13.5657
lhand -54.997 62.9246
lfingers 7.12502
lthumb -27.3772 -90.956
rfemur 6.83558 29.0978 29.5492
rtibia -4.81522
rfoot -30.5869 -31.0474
rtoes 7.19718
lfemur 12.6285 -39.2826 -28.6048
ltibia -2.92452
lfoot -56.7431 -0.229381
ltoes -10.6543
110
root 3.53348 16.3948 2.53137 -174.022 -25.2368 -177.651
lowerback 3.10836 2.3272 1.50314
upperback -13.5885 2.21606 1.66123
thorax -16.955 0.431945 0.833605
lowerneck -13.6091 5.61298 4.85699
upperneck 32.5124 8.92208 -12.3785
head 14.2647 1.90877 -4.67901
rclavicle 1.16289e-014 -1.94809e-014
rhumerus -44.1822 -19.0584 -1.84332
rradius 140.027
rwrist -7.48014
rhand -60.6704 -30.076
rfingers 7.12502
rthumb -32.7899 -57.1203
lclavicle 1.16289e-014 -1.94809e-014
lhumerus -44.1314 20.7373 2.50431
lradius 149.773
lwrist -13.6669
lhand -55.2903 64.7077
lfingers 7.12502
lthumb -27.6578 -92.6945
rfemur 6.77137 29.0397 29.4046
rtibia -4.72343
rfoot -30.9119 -30.6708
rtoes 8.46023
lfemur 12.4413 -39.0963 -28.6195
ltibia -2.75217
lfoot -56.5316 -0.288867
ltoes -11.0443
